<?xml version="1.0" standalone="no"?>
<!DOCTYPE svg PUBLIC "-//W3C//DTD SVG 20010904//EN"
 "http://www.w3.org/TR/2001/REC-SVG-20010904/DTD/svg10.dtd">
<svg version="1.0" xmlns="http://www.w3.org/2000/svg"
 width="250.000000pt" height="200.000000pt" viewBox="0 0 250.000000 200.000000"
 preserveAspectRatio="xMidYMid meet">

<g transform="translate(0.000000,200.000000) scale(0.100000,-0.100000)"
fill="#000000" stroke="none">
<path d="M589 1388 c-45 -79 -93 -162 -106 -185 l-25 -43 211 0 211 0 30 48
29 47 -149 3 c-83 1 -150 5 -150 9 0 3 19 39 43 79 l42 74 628 0 c345 0 627
-2 627 -4 0 -2 -19 -37 -43 -78 l-44 -73 -404 -3 -405 -2 -114 -198 c-275
-476 -330 -574 -330 -582 0 -6 174 -10 455 -10 l455 0 23 38 c41 64 187 319
187 326 0 3 -103 6 -230 6 -126 0 -230 3 -230 6 0 3 23 44 50 91 28 47 50 87
50 89 0 2 -26 4 -58 4 l-58 0 -81 -142 -82 -143 230 -3 c152 -1 229 -6 229
-13 0 -6 -19 -42 -41 -80 l-41 -69 -344 0 -344 0 27 48 c16 26 91 157 168 290
l139 242 406 0 405 1 100 176 c55 97 102 180 103 185 2 4 -332 8 -741 8 l-745
0 -83 -142z"/>
</g>
</svg>
